<?xml version="1.0" encoding="UTF-8" standalone="no"?>
<svg width="18" height="19" viewBox="0 0 18 19" fill="none" xmlns="http://www.w3.org/2000/svg">
    <path d="M14.3828 3.74683C14.2214 3.63745 14.0312 3.53589 13.8125 3.44214C13.5938 3.34839 13.3464 3.26245 13.0703 3.18433C12.7943 3.1062 12.5 3.03849 12.1875 2.9812C11.875 2.9187 11.5443 2.86662 11.1953 2.82495C10.8516 2.78328 10.4948 2.75203 10.125 2.7312C9.75521 2.71037 9.38021 2.69995 9 2.69995C8.61458 2.69995 8.23698 2.71037 7.86719 2.7312C7.4974 2.75203 7.14062 2.78328 6.79688 2.82495C6.45312 2.86662 6.1224 2.9187 5.80469 2.9812C5.49219 3.03849 5.20052 3.1062 4.92969 3.18433C4.65365 3.26245 4.40365 3.34839 4.17969 3.44214C3.96094 3.53589 3.77344 3.63745 3.61719 3.74683C3.36198 3.9187 3.19531 4.09058 3.11719 4.26245C3.03906 4.43433 3 4.58016 3 4.69995V5.09839C3 5.27026 3.05208 5.4812 3.15625 5.7312C3.26562 5.9812 3.38281 6.19995 3.50781 6.38745L7.42188 12.2546C7.52083 12.4057 7.60677 12.6062 7.67969 12.8562C7.75781 13.1062 7.79688 13.3223 7.79688 13.5046V15.9031C7.79688 15.9708 7.8125 16.0359 7.84375 16.0984C7.88021 16.1557 7.92708 16.2026 7.98438 16.239C8.02083 16.2598 8.05469 16.2755 8.08594 16.2859C8.1224 16.2963 8.15885 16.3015 8.19531 16.3015C8.22656 16.3015 8.25781 16.2989 8.28906 16.2937C8.32031 16.2833 8.34896 16.2729 8.375 16.2625L9.97656 15.4578C10.0443 15.4265 10.0964 15.3796 10.1328 15.3171C10.1745 15.2494 10.1953 15.1765 10.1953 15.0984V13.5046C10.1953 13.3223 10.2318 13.1062 10.3047 12.8562C10.3828 12.6062 10.474 12.4057 10.5781 12.2546L14.4844 6.38745C14.6146 6.19995 14.7318 5.9812 14.8359 5.7312C14.9453 5.4812 15 5.27026 15 5.09839V4.69995C15 4.58016 14.9609 4.43433 14.8828 4.26245C14.8047 4.09058 14.638 3.9187 14.3828 3.74683ZM5.14844 3.95776C5.40365 3.88485 5.67969 3.81974 5.97656 3.76245C6.27344 3.70516 6.58333 3.65828 6.90625 3.62183C7.23438 3.58016 7.57292 3.55151 7.92188 3.53589C8.27604 3.51506 8.63542 3.50464 9 3.50464C9.36458 3.50464 9.72135 3.51506 10.0703 3.53589C10.4245 3.55151 10.763 3.58016 11.0859 3.62183C11.4141 3.65828 11.724 3.70516 12.0156 3.76245C12.3125 3.81974 12.5911 3.88485 12.8516 3.95776C13.3984 4.11401 13.7578 4.26506 13.9297 4.41089C14.1068 4.55672 14.1953 4.65308 14.1953 4.69995C14.1953 4.74683 14.1068 4.84578 13.9297 4.99683C13.7578 5.14266 13.3984 5.2937 12.8516 5.44995C12.5911 5.52287 12.3125 5.58797 12.0156 5.64526C11.724 5.69735 11.4141 5.74422 11.0859 5.78589C10.763 5.82235 10.4245 5.85099 10.0703 5.87183C9.72135 5.89266 9.36458 5.90308 9 5.90308C8.63542 5.90308 8.27604 5.89266 7.92188 5.87183C7.57292 5.85099 7.23438 5.82235 6.90625 5.78589C6.58333 5.74422 6.27344 5.69735 5.97656 5.64526C5.67969 5.58797 5.40365 5.52287 5.14844 5.44995C4.59635 5.2937 4.23177 5.14266 4.05469 4.99683C3.88281 4.84578 3.79688 4.74683 3.79688 4.69995C3.79688 4.65308 3.88281 4.55672 4.05469 4.41089C4.23177 4.26506 4.59635 4.11401 5.14844 3.95776ZM9.90625 11.8171C9.76562 12.0307 9.64583 12.3015 9.54688 12.6296C9.44792 12.9526 9.39844 13.2442 9.39844 13.5046V14.8562L8.60156 15.2546V13.5046C8.60156 13.2442 8.55208 12.9526 8.45312 12.6296C8.35417 12.3015 8.23177 12.0307 8.08594 11.8171L4.17969 5.95776C4.29427 6.00464 4.41146 6.05151 4.53125 6.09839C4.65625 6.14006 4.78906 6.17912 4.92969 6.21558C5.20052 6.2937 5.49219 6.36401 5.80469 6.42651C6.1224 6.48381 6.45312 6.53328 6.79688 6.57495C7.14062 6.61662 7.4974 6.64787 7.86719 6.6687C8.23698 6.68953 8.61458 6.69995 9 6.69995C9.38021 6.69995 9.75521 6.68953 10.125 6.6687C10.4948 6.64787 10.8516 6.61662 11.1953 6.57495C11.5443 6.53328 11.875 6.48381 12.1875 6.42651C12.5 6.36401 12.7943 6.2937 13.0703 6.21558C13.2057 6.17912 13.3359 6.14006 13.4609 6.09839C13.5859 6.05151 13.7031 6.00464 13.8125 5.95776L9.90625 11.8171Z" fill="#94A1AD"/>
</svg>
